<mxfile host="app.diagrams.net" agent="Mozilla/5.0 (Windows NT 10.0; Win64; x64) AppleWebKit/537.36 (KHTML, like Gecko) Chrome/138.0.0.0 Safari/537.36" version="28.0.7">
  <diagram name="Page-1" id="zses4orNOnVpqvfJh4Eb">
    <mxGraphModel dx="1042" dy="510" grid="1" gridSize="10" guides="1" tooltips="1" connect="1" arrows="1" fold="1" page="1" pageScale="1" pageWidth="850" pageHeight="1100" math="0" shadow="0">
      <root>
        <mxCell id="0" />
        <mxCell id="1" parent="0" />
        <mxCell id="-gIpmuLBJj2XUCLCydsW-2" value="Student Information System" style="rounded=0;whiteSpace=wrap;html=1;" vertex="1" parent="1">
          <mxGeometry x="80" y="20" width="730" height="60" as="geometry" />
        </mxCell>
        <mxCell id="-gIpmuLBJj2XUCLCydsW-44" value="" style="edgeStyle=orthogonalEdgeStyle;rounded=0;orthogonalLoop=1;jettySize=auto;html=1;" edge="1" parent="1" source="-gIpmuLBJj2XUCLCydsW-5" target="-gIpmuLBJj2XUCLCydsW-43">
          <mxGeometry relative="1" as="geometry" />
        </mxCell>
        <mxCell id="-gIpmuLBJj2XUCLCydsW-5" value="Forgot&lt;div&gt;password&lt;/div&gt;" style="ellipse;whiteSpace=wrap;html=1;aspect=fixed;" vertex="1" parent="1">
          <mxGeometry x="50" y="220" width="90" height="90" as="geometry" />
        </mxCell>
        <mxCell id="-gIpmuLBJj2XUCLCydsW-13" value="Mange system&lt;div&gt;admins&lt;/div&gt;" style="rounded=0;whiteSpace=wrap;html=1;" vertex="1" parent="1">
          <mxGeometry x="50" y="470" width="120" height="60" as="geometry" />
        </mxCell>
        <mxCell id="-gIpmuLBJj2XUCLCydsW-18" style="edgeStyle=orthogonalEdgeStyle;rounded=0;orthogonalLoop=1;jettySize=auto;html=1;" edge="1" parent="1" source="-gIpmuLBJj2XUCLCydsW-17">
          <mxGeometry relative="1" as="geometry">
            <mxPoint x="270" y="230" as="targetPoint" />
          </mxGeometry>
        </mxCell>
        <mxCell id="-gIpmuLBJj2XUCLCydsW-17" value="Login to&lt;div&gt;system&lt;/div&gt;" style="ellipse;whiteSpace=wrap;html=1;aspect=fixed;" vertex="1" parent="1">
          <mxGeometry x="230" y="100" width="80" height="80" as="geometry" />
        </mxCell>
        <mxCell id="-gIpmuLBJj2XUCLCydsW-19" value="check&lt;div&gt;Credentials&lt;/div&gt;" style="ellipse;whiteSpace=wrap;html=1;aspect=fixed;" vertex="1" parent="1">
          <mxGeometry x="230" y="230" width="80" height="80" as="geometry" />
        </mxCell>
        <mxCell id="-gIpmuLBJj2XUCLCydsW-26" style="edgeStyle=orthogonalEdgeStyle;rounded=0;orthogonalLoop=1;jettySize=auto;html=1;entryX=0.5;entryY=0;entryDx=0;entryDy=0;" edge="1" parent="1" source="-gIpmuLBJj2XUCLCydsW-20" target="-gIpmuLBJj2XUCLCydsW-25">
          <mxGeometry relative="1" as="geometry" />
        </mxCell>
        <mxCell id="-gIpmuLBJj2XUCLCydsW-20" value="Check rules&lt;div&gt;of access&lt;/div&gt;" style="ellipse;whiteSpace=wrap;html=1;aspect=fixed;" vertex="1" parent="1">
          <mxGeometry x="405" y="100" width="80" height="80" as="geometry" />
        </mxCell>
        <mxCell id="-gIpmuLBJj2XUCLCydsW-25" value="Manage&lt;div&gt;Modules&lt;/div&gt;" style="ellipse;whiteSpace=wrap;html=1;aspect=fixed;" vertex="1" parent="1">
          <mxGeometry x="405" y="240" width="80" height="80" as="geometry" />
        </mxCell>
        <mxCell id="-gIpmuLBJj2XUCLCydsW-28" value="Manage roles of&amp;nbsp;&lt;div&gt;user&lt;/div&gt;" style="rounded=0;whiteSpace=wrap;html=1;" vertex="1" parent="1">
          <mxGeometry x="250" y="470" width="120" height="60" as="geometry" />
        </mxCell>
        <mxCell id="-gIpmuLBJj2XUCLCydsW-29" value="Manage user&amp;nbsp;&lt;div&gt;permission&lt;/div&gt;" style="rounded=0;whiteSpace=wrap;html=1;" vertex="1" parent="1">
          <mxGeometry x="405" y="470" width="120" height="60" as="geometry" />
        </mxCell>
        <mxCell id="-gIpmuLBJj2XUCLCydsW-40" value="" style="edgeStyle=orthogonalEdgeStyle;rounded=0;orthogonalLoop=1;jettySize=auto;html=1;" edge="1" parent="1" source="-gIpmuLBJj2XUCLCydsW-39" target="-gIpmuLBJj2XUCLCydsW-5">
          <mxGeometry relative="1" as="geometry" />
        </mxCell>
        <mxCell id="-gIpmuLBJj2XUCLCydsW-41" value="" style="edgeStyle=orthogonalEdgeStyle;rounded=0;orthogonalLoop=1;jettySize=auto;html=1;" edge="1" parent="1" source="-gIpmuLBJj2XUCLCydsW-39" target="-gIpmuLBJj2XUCLCydsW-17">
          <mxGeometry relative="1" as="geometry" />
        </mxCell>
        <mxCell id="-gIpmuLBJj2XUCLCydsW-39" value="Admin" style="rounded=0;whiteSpace=wrap;html=1;" vertex="1" parent="1">
          <mxGeometry x="35" y="110" width="120" height="60" as="geometry" />
        </mxCell>
        <mxCell id="-gIpmuLBJj2XUCLCydsW-43" value="Send email&amp;nbsp;&lt;div&gt;to user&lt;/div&gt;" style="ellipse;whiteSpace=wrap;html=1;aspect=fixed;" vertex="1" parent="1">
          <mxGeometry x="55" y="360" width="80" height="80" as="geometry" />
        </mxCell>
        <mxCell id="-gIpmuLBJj2XUCLCydsW-47" value="" style="endArrow=classic;html=1;rounded=0;entryX=0;entryY=0;entryDx=0;entryDy=0;" edge="1" parent="1" target="-gIpmuLBJj2XUCLCydsW-20">
          <mxGeometry width="50" height="50" relative="1" as="geometry">
            <mxPoint x="300" y="240" as="sourcePoint" />
            <mxPoint x="350" y="190" as="targetPoint" />
          </mxGeometry>
        </mxCell>
        <mxCell id="-gIpmuLBJj2XUCLCydsW-48" value="" style="endArrow=classic;html=1;rounded=0;entryX=0.5;entryY=0;entryDx=0;entryDy=0;" edge="1" parent="1" source="-gIpmuLBJj2XUCLCydsW-25" target="-gIpmuLBJj2XUCLCydsW-28">
          <mxGeometry width="50" height="50" relative="1" as="geometry">
            <mxPoint x="330" y="360" as="sourcePoint" />
            <mxPoint x="380" y="310" as="targetPoint" />
          </mxGeometry>
        </mxCell>
        <mxCell id="-gIpmuLBJj2XUCLCydsW-49" value="" style="endArrow=classic;html=1;rounded=0;exitX=0.5;exitY=1;exitDx=0;exitDy=0;" edge="1" parent="1" source="-gIpmuLBJj2XUCLCydsW-25">
          <mxGeometry width="50" height="50" relative="1" as="geometry">
            <mxPoint x="400" y="340" as="sourcePoint" />
            <mxPoint x="450" y="470" as="targetPoint" />
          </mxGeometry>
        </mxCell>
        <mxCell id="-gIpmuLBJj2XUCLCydsW-50" value="" style="endArrow=classic;html=1;rounded=0;entryX=0.5;entryY=0;entryDx=0;entryDy=0;exitX=0;exitY=1;exitDx=0;exitDy=0;" edge="1" parent="1" source="-gIpmuLBJj2XUCLCydsW-25" target="-gIpmuLBJj2XUCLCydsW-13">
          <mxGeometry width="50" height="50" relative="1" as="geometry">
            <mxPoint x="400" y="340" as="sourcePoint" />
            <mxPoint x="450" y="290" as="targetPoint" />
          </mxGeometry>
        </mxCell>
        <mxCell id="-gIpmuLBJj2XUCLCydsW-52" value="Manage attendence&amp;nbsp;&lt;div&gt;details&lt;/div&gt;" style="rounded=0;whiteSpace=wrap;html=1;" vertex="1" parent="1">
          <mxGeometry x="590" y="170" width="210" height="40" as="geometry" />
        </mxCell>
        <mxCell id="-gIpmuLBJj2XUCLCydsW-53" value="Manage timetable&lt;div&gt;details&lt;/div&gt;" style="rounded=0;whiteSpace=wrap;html=1;" vertex="1" parent="1">
          <mxGeometry x="590" y="110" width="210" height="40" as="geometry" />
        </mxCell>
        <mxCell id="-gIpmuLBJj2XUCLCydsW-55" value="Manage class details" style="rounded=0;whiteSpace=wrap;html=1;" vertex="1" parent="1">
          <mxGeometry x="590" y="230" width="210" height="40" as="geometry" />
        </mxCell>
        <mxCell id="-gIpmuLBJj2XUCLCydsW-57" value="Manage students details" style="rounded=0;whiteSpace=wrap;html=1;" vertex="1" parent="1">
          <mxGeometry x="590" y="290" width="210" height="40" as="geometry" />
        </mxCell>
        <mxCell id="-gIpmuLBJj2XUCLCydsW-60" value="" style="rounded=0;whiteSpace=wrap;html=1;" vertex="1" parent="1">
          <mxGeometry x="590" y="470" width="210" height="40" as="geometry" />
        </mxCell>
        <mxCell id="-gIpmuLBJj2XUCLCydsW-61" value="" style="endArrow=classic;html=1;rounded=0;entryX=0;entryY=0.25;entryDx=0;entryDy=0;" edge="1" parent="1" target="-gIpmuLBJj2XUCLCydsW-53">
          <mxGeometry width="50" height="50" relative="1" as="geometry">
            <mxPoint x="460" y="240" as="sourcePoint" />
            <mxPoint x="510" y="190" as="targetPoint" />
          </mxGeometry>
        </mxCell>
        <mxCell id="-gIpmuLBJj2XUCLCydsW-62" value="" style="endArrow=classic;html=1;rounded=0;exitX=1;exitY=0;exitDx=0;exitDy=0;entryX=0;entryY=0.5;entryDx=0;entryDy=0;" edge="1" parent="1" source="-gIpmuLBJj2XUCLCydsW-25" target="-gIpmuLBJj2XUCLCydsW-52">
          <mxGeometry width="50" height="50" relative="1" as="geometry">
            <mxPoint x="480" y="370" as="sourcePoint" />
            <mxPoint x="590" y="250" as="targetPoint" />
          </mxGeometry>
        </mxCell>
        <mxCell id="-gIpmuLBJj2XUCLCydsW-64" value="" style="endArrow=classic;html=1;rounded=0;entryX=0;entryY=0.75;entryDx=0;entryDy=0;exitX=1.003;exitY=0.342;exitDx=0;exitDy=0;exitPerimeter=0;" edge="1" parent="1" source="-gIpmuLBJj2XUCLCydsW-25" target="-gIpmuLBJj2XUCLCydsW-55">
          <mxGeometry width="50" height="50" relative="1" as="geometry">
            <mxPoint x="490" y="390" as="sourcePoint" />
            <mxPoint x="620" y="270" as="targetPoint" />
          </mxGeometry>
        </mxCell>
        <mxCell id="-gIpmuLBJj2XUCLCydsW-65" value="" style="endArrow=classic;html=1;rounded=0;entryX=0;entryY=0.5;entryDx=0;entryDy=0;exitX=0.983;exitY=0.692;exitDx=0;exitDy=0;exitPerimeter=0;" edge="1" parent="1" source="-gIpmuLBJj2XUCLCydsW-25" target="-gIpmuLBJj2XUCLCydsW-57">
          <mxGeometry width="50" height="50" relative="1" as="geometry">
            <mxPoint x="490" y="420" as="sourcePoint" />
            <mxPoint x="620" y="300" as="targetPoint" />
          </mxGeometry>
        </mxCell>
        <mxCell id="-gIpmuLBJj2XUCLCydsW-66" value="" style="endArrow=classic;html=1;rounded=0;entryX=0;entryY=0.75;entryDx=0;entryDy=0;exitX=0.913;exitY=0.753;exitDx=0;exitDy=0;exitPerimeter=0;" edge="1" parent="1" source="-gIpmuLBJj2XUCLCydsW-25" target="-gIpmuLBJj2XUCLCydsW-58">
          <mxGeometry width="50" height="50" relative="1" as="geometry">
            <mxPoint x="490" y="450" as="sourcePoint" />
            <mxPoint x="620" y="330" as="targetPoint" />
          </mxGeometry>
        </mxCell>
        <mxCell id="-gIpmuLBJj2XUCLCydsW-67" value="" style="endArrow=classic;html=1;rounded=0;entryX=0;entryY=0.25;entryDx=0;entryDy=0;exitX=0.813;exitY=0.963;exitDx=0;exitDy=0;exitPerimeter=0;" edge="1" parent="1" source="-gIpmuLBJj2XUCLCydsW-58">
          <mxGeometry width="50" height="50" relative="1" as="geometry">
            <mxPoint x="500" y="480" as="sourcePoint" />
            <mxPoint x="630" y="360" as="targetPoint" />
          </mxGeometry>
        </mxCell>
        <mxCell id="-gIpmuLBJj2XUCLCydsW-68" value="" style="endArrow=classic;html=1;rounded=0;entryX=0;entryY=0.5;entryDx=0;entryDy=0;exitX=0.813;exitY=0.963;exitDx=0;exitDy=0;exitPerimeter=0;" edge="1" parent="1" source="-gIpmuLBJj2XUCLCydsW-25">
          <mxGeometry width="50" height="50" relative="1" as="geometry">
            <mxPoint x="470" y="317" as="sourcePoint" />
            <mxPoint x="590" y="430" as="targetPoint" />
          </mxGeometry>
        </mxCell>
        <mxCell id="-gIpmuLBJj2XUCLCydsW-58" value="Manage fee details" style="rounded=0;whiteSpace=wrap;html=1;" vertex="1" parent="1">
          <mxGeometry x="590" y="350" width="210" height="40" as="geometry" />
        </mxCell>
        <mxCell id="-gIpmuLBJj2XUCLCydsW-69" value="" style="endArrow=classic;html=1;rounded=0;entryX=0;entryY=0.5;entryDx=0;entryDy=0;exitX=0.643;exitY=0.983;exitDx=0;exitDy=0;exitPerimeter=0;" edge="1" parent="1" source="-gIpmuLBJj2XUCLCydsW-25" target="-gIpmuLBJj2XUCLCydsW-60">
          <mxGeometry width="50" height="50" relative="1" as="geometry">
            <mxPoint x="500" y="520" as="sourcePoint" />
            <mxPoint x="630" y="400" as="targetPoint" />
          </mxGeometry>
        </mxCell>
        <mxCell id="-gIpmuLBJj2XUCLCydsW-70" value="Manage teacher profiles" style="rounded=0;whiteSpace=wrap;html=1;" vertex="1" parent="1">
          <mxGeometry x="590" y="410" width="210" height="40" as="geometry" />
        </mxCell>
      </root>
    </mxGraphModel>
  </diagram>
</mxfile>
